*
G04 Job   : C:\temp\CoilsTopRevB\PCB\CoilsTopRevB.pcb*
G04 User  : E217PC09:e217*
G04 Layer : Top.gdo*
G04 Date  : Tue Apr 25 16:49:50 2017*
G04 VeriBest Example Gerber Output Definition*
%ICAS*%
%MOIN*%
%FSLAX24Y24*%
%OFA0.0000B0.0000*%
G90*
G74*
%AMVB_RECTANGLE*
21,1,$1,$2,0,0,$3*
%
%ADD10C,0.01000*%
%ADD12C,0.02000*%
%ADD13C,0.03000*%
%ADD15C,0.06000*%
%ADD11C,0.38000*%
%ADD18VB_RECTANGLE,0.06000X0.06000X25.00000*%
%ADD14VB_RECTANGLE,0.06000X0.06000X315.00000*%
%ADD16VB_RECTANGLE,0.07087X0.06299X180.00000*%
%ADD17VB_RECTANGLE,0.08000X0.05000X0.00000*%
G01*
G36*
X-42001D02*
G02X-42000Y289I42000D01*
X-41992Y868I41999J289*
X-41976Y1447I41991J868*
X-41952Y2025I41975J1447*
X-41920Y2603I41951J2025*
X-41880Y3180I41919J2603*
X-41833Y3757I41879J3180*
X-41800Y4104I41832J3757*
G01Y0*
G03X-39600Y-2200I2200*
X-37400Y0J2200*
X-39600Y2200I2200*
X-41800Y0J2200*
G01Y4104*
G02X-41777Y4333I41799J4104*
X-41713Y4908I41776J4333*
X-41642Y5482I41712J4908*
X-41562Y6055I41641J5482*
X-41475Y6628I41561J6055*
X-41380Y7198I41474J6628*
X-41276Y7768I41379J7198*
X-41165Y8336I41275J7768*
X-41047Y8902I41164J8336*
X-40920Y9467I41046J8902*
X-40786Y10030I40919J9467*
X-40644Y10591I40785J10030*
X-40494Y11150I40643J10591*
X-40337Y11707I40493J11150*
X-40171Y12261I40336J11707*
X-39999Y12814I40170J12261*
X-39818Y13364I39998J12814*
X-39630Y13911I39817J13364*
X-39435Y14456I39629J13911*
X-39232Y14998I39434J14456*
X-39022Y15537I39231J14998*
X-38579Y16606I39021J15537*
X-38346Y17136I38578J16606*
X-37860Y18186I38345J17136*
X-37344Y19223I37859J18186*
X-37076Y19735I37343J19223*
X-36518Y20749I37075J19735*
X-35932Y21748I36517J20749*
X-35629Y22241I35931J21747*
X-35319Y22730I35628J22240*
X-35003Y23214I35318J22729*
X-34680Y23694I35002J23213*
X-34014Y24641I34679J23693*
X-33671Y25107I34013J24640*
X-33322Y25569I33670J25106*
X-32966Y26025I33321J25568*
X-32604Y26477I32965J26024*
X-32237Y26924I32603J26476*
X-31863Y27365I32236J26923*
X-31482Y27802I31862J27364*
X-30704Y28659I31481J27801*
X-30307Y29079I30703J28658*
X-29903Y29494I30306J29078*
X-29494Y29903I29902J29493*
X-29079Y30307I29493J29902*
X-28659Y30704I29078J30306*
X-27802Y31482I28658J30703*
X-27511Y31737I27801J31481*
G01Y-12408*
G03X-27379Y-12726I450*
G01X-5065Y-35040*
G03X-4747Y-35172I318J318*
G01X11281*
G02X11302Y-35180J30*
G01X12366Y-36245*
G02X12375Y-36266I21J21*
X12345Y-36296I30*
X12337Y-36295J30*
G03X12206Y-36277I131J482*
X11735Y-36610J500*
G02X11707Y-36630I28J10*
X11683Y-36619J30*
G03X11445Y-36501I238J182*
X11318Y-36529J300*
G01X10775Y-36783*
G03X10601Y-37055I126J272*
X10629Y-37182I300*
G01X10711Y-37356*
G02X10714Y-37369I27J13*
X10684Y-37399I30*
G01X6369*
G02X6348Y-37390J30*
G01X4950Y-35992*
G03X4632Y-35860I318J318*
G01X-16752*
G02X-16773Y-35851J30*
G01X-23387Y-29237*
G02X-23396Y-29216I21J21*
G01Y-28850*
G03X-23538Y-28522I450*
G02X-23547Y-28503I20J22*
G03X-23635Y-28321I299J32*
G02X-23644Y-28300I21J21*
X-23635Y-28279I30*
G03X-23546Y-28065I211J214*
G01Y-27435*
G03X-23731Y-27158I300*
G02X-23750Y-27130I11J28*
G01Y-26150*
G03X-23882Y-25832I450*
G01X-24791Y-24922*
G02X-24800Y-24901I21J21*
G01Y-24750*
G03X-24988Y-24472I300*
G02X-25006Y-24444I12J28*
X-24993Y-24419I30*
G03X-24900Y-24250I107J169*
G01Y-23750*
G03X-25100Y-23550I200*
G01X-25900*
G03X-26100Y-23750J200*
G01Y-24250*
G03X-26007Y-24419I200*
G02X-25994Y-24444I17J25*
X-26012Y-24472I30*
G03X-26200Y-24750I112J278*
G01Y-25250*
G03X-25900Y-25550I300*
G01X-25449*
G02X-25428Y-25559J30*
G01X-24659Y-26328*
G02X-24650Y-26349I21J21*
G01Y-27130*
G02X-24669Y-27158I30*
G03X-24854Y-27435I115J277*
G01Y-28065*
G03X-24765Y-28279I300*
G02X-24756Y-28300I21J21*
X-24765Y-28321I30*
G03X-24854Y-28535I211J214*
G01Y-29165*
G03X-24554Y-29465I300*
G01X-24319*
G02X-24290Y-29490J30*
G03X-24164Y-29733I444J75*
G01X-17269Y-36628*
G03X-16951Y-36760I318J318*
G01X-2200*
Y-39600*
G03X0Y-41800I2200*
X2200Y-39600J2200*
X0Y-37400I2200*
X-2200Y-39600J2200*
G01Y-36760*
X4433*
G02X4454Y-36769J30*
G01X5852Y-38167*
G03X6170Y-38299I318J318*
G01X15570*
G03X15888Y-38167J450*
G01X19218Y-34836*
G03X19350Y-34518I318J318*
X19302Y-34317I450*
G01X19135Y-33983*
G02X19132Y-33969I27J14*
X19133Y-33962I30*
G03X19136Y-33949I583J143*
G02X19166Y-33925I30J6*
X19179Y-33929J30*
G03X19457Y-33996I278J533*
X20057Y-33396J600*
X20056Y-33376I600*
G01Y-33375*
G02X20063Y-33356I30*
G01X20202Y-33180*
G02X20204Y-33178I24J19*
G01X24955Y-28427*
G02X24976Y-28418I21J21*
X24992Y-28422J30*
G03X25146Y-28465I154J257*
G01X25854*
G03X26154Y-28165J300*
G01Y-27535*
G03X26065Y-27321I300*
G02X26056Y-27300I21J21*
X26065Y-27279I30*
G03X26154Y-27065I211J214*
G01Y-26435*
G03X25969Y-26158I300*
G02X25950Y-26130I11J28*
G01Y-25570*
G02X25973Y-25541I30*
G03X26200Y-25250I73J291*
G01Y-24750*
G03X26012Y-24472I300*
G02X25994Y-24444I12J28*
X26007Y-24419I30*
G03X26100Y-24250I107J169*
G01Y-23750*
G03X25900Y-23550I200*
G01X25100*
G03X24900Y-23750J200*
G01Y-24250*
G03X24993Y-24419I200*
G02X25006Y-24444I17J25*
X24988Y-24472I30*
G03X24800Y-24750I112J278*
G01Y-25250*
G03X25027Y-25541I300*
G02X25050Y-25570I7J29*
G01Y-26130*
G02X25031Y-26158I30*
G03X24846Y-26435I115J277*
G01Y-27065*
G03X24935Y-27279I300*
G02X24944Y-27300I21J21*
X24935Y-27321I30*
G03X24885Y-27386I211J214*
G02X24861Y-27401I26J15*
G03X24577Y-27532I35J449*
G01X22502Y-29607*
G02X22481Y-29616I21J21*
X22451Y-29586J30*
G01Y16991*
G02X22460Y17013I30*
G01X25473Y20026*
G02X25494Y20035I21J21*
G01X25854*
G03X26154Y20335J300*
G01Y20965*
G03X26065Y21179I300*
G02X26056Y21200I21J21*
X26065Y21221I30*
G03X26154Y21435I211J214*
G01Y22065*
G03X25969Y22342I300*
G02X25950Y22370I11J28*
G01Y23430*
G02X25973Y23459I30*
G03X26200Y23750I73J291*
G01Y24250*
G03X26012Y24528I300*
G02X25994Y24556I12J28*
X26007Y24581I30*
G03X26100Y24750I107J169*
G01Y25250*
G03X25900Y25450I200*
G01X25100*
G03X24900Y25250J200*
G01Y24750*
G03X24993Y24581I200*
G02X25006Y24556I17J25*
X24988Y24528I30*
G03X24800Y24250I112J278*
G01Y23750*
G03X25027Y23459I300*
G02X25050Y23430I7J29*
G01Y22370*
G02X25031Y22342I30*
G03X24846Y22065I115J277*
G01Y21435*
G03X24935Y21221I300*
G02X24944Y21200I21J21*
X24935Y21179I30*
G03X24846Y20965I211J214*
G01Y20684*
G02X24837Y20663I30*
G01X22100Y17926*
G02X22079Y17917I21J21*
X22049Y17947J30*
G01Y20538*
G03X21917Y20856I450*
G01X21705Y21068*
G03X21387Y21200I318J318*
G01X-24860*
G02X-24886Y21215J30*
G03X-24935Y21279I260J150*
G02X-24944Y21300I21J21*
X-24935Y21321I30*
G03X-24846Y21535I211J214*
G01Y22165*
G03X-25031Y22442I300*
G02X-25050Y22470I11J28*
G01Y23430*
G02X-25027Y23459I30*
G03X-24800Y23750I73J291*
G01Y24250*
G03X-24988Y24528I300*
G02X-25006Y24556I12J28*
X-24993Y24581I30*
G03X-24900Y24750I107J169*
G01Y25250*
G03X-25100Y25450I200*
G01X-25900*
G03X-26100Y25250J200*
G01Y24750*
G03X-26007Y24581I200*
G02X-25994Y24556I17J25*
X-26012Y24528I30*
G03X-26200Y24250I112J278*
G01Y23750*
G03X-25973Y23459I300*
G02X-25950Y23430I7J29*
G01Y22470*
G02X-25969Y22442I30*
G03X-26154Y22165I115J277*
G01Y21535*
G03X-26065Y21321I300*
G02X-26056Y21300I21J21*
X-26065Y21279I30*
G03X-26154Y21065I211J214*
G01Y20435*
G03X-25854Y20135I300*
G01X-25146*
G03X-24886Y20285J300*
G02X-24860Y20300I26J15*
G01X-11243*
Y-7775*
G03X-7793Y-11225I3450*
X-4343Y-7775J3450*
X-7793Y-4325I3450*
X-11243Y-7775J3450*
G01Y7775*
G03X-7793Y4325I3450*
X-4343Y7775J3450*
X-7793Y11225I3450*
X-11243Y7775J3450*
G01Y20300*
X-2200*
Y0*
G03X0Y-2200I2200*
X2200Y0J2200*
X0Y2200I2200*
X-2200Y0J2200*
G01Y20300*
X4343*
Y-7775*
G03X7793Y-11225I3450*
X11243Y-7775J3450*
X7793Y-4325I3450*
X4343Y-7775J3450*
G01Y7775*
G03X7793Y4325I3450*
X11243Y7775J3450*
X7793Y11225I3450*
X4343Y7775J3450*
G01Y20300*
X21119*
G02X21149Y20270J30*
G01Y-28694*
G02X21140Y-28716I30*
G01X16420Y-33436*
G03X16288Y-33754I318J318*
G01Y-34256*
G02X16281Y-34276I30*
G03X16152Y-34535I457J388*
G02X16123Y-34558I29J7*
X16109Y-34555J30*
G03X15832Y-34487I277J532*
X15246Y-34957J600*
G02X15216Y-34981I30J6*
X15203Y-34977J30*
G03X14974Y-34911I278J533*
G02X14955Y-34903I2J29*
G01X13157Y-33105*
G03X12839Y-32973I318J318*
G01X-2767*
G02X-2788Y-32964J30*
G01X-18299Y-17454*
G02X-18307Y-17432I22J22*
G01Y-16913*
G02X-18299Y-16892I30*
G01X-14162Y-12755*
G02X-14157Y-12752I21J22*
G03X-14085Y-12693I246J377*
G01X-13985Y-12593*
G02X-13966Y-12584I22J21*
G03X-13835Y-12559I48J598*
G02X-13826Y-12557I9J28*
X-13796Y-12587J30*
X-13797Y-12593I30*
G03X-13807Y-12693I490J100*
X-13307Y-13193I500*
X-13303J500*
G02X-13273Y-13223J30*
X-13277Y-13239I30*
G03X-13324Y-13400I253J161*
X-13236Y-13612I300*
G01X-12812Y-14036*
G03X-12600Y-14124I212J212*
X-12388Y-14036J300*
G01X-12210Y-13859*
G02X-12189Y-13850I21J21*
G01X8826*
G03X9144Y-13718J450*
G01X10348Y-12515*
G02X10369Y-12506I21J21*
G01X12752*
G02X12782Y-12536J30*
X12781Y-12542I30*
G03X12776Y-12600I295J58*
X12823Y-12761I300*
G02X12827Y-12777I26J16*
X12797Y-12807I30*
G03X12793I4J500*
X12293Y-13307J500*
X12303Y-13407I500*
G02X12304Y-13413I29J6*
X12274Y-13443I30*
X12265Y-13441J30*
G03X12086Y-13414I179J573*
X11486Y-14014J600*
X12086Y-14614I600*
X12686Y-14014J600*
X12659Y-13835I600*
G02X12657Y-13826I28J9*
X12687Y-13796I30*
X12693Y-13797J30*
G03X12793Y-13807I100J490*
X13293Y-13307J500*
Y-13303I500*
G02X13323Y-13273I30*
X13339Y-13277J30*
G03X13500Y-13324I161J253*
X13712Y-13236J300*
G01X14136Y-12812*
G03X14224Y-12600I212J212*
X14136Y-12388I300*
G01X13712Y-11964*
G03X13500Y-11876I212J212*
X13438Y-11882J300*
G02X13432Y-11883I6J29*
X13410Y-11874J30*
G01X13357Y-11821*
G02X13348Y-11800I21J21*
G01Y12177*
G02X13378Y12207I30*
X13397Y12201J30*
G03X13707Y12093I310J392*
X13807Y12103J500*
G02X13813Y12104I6J29*
X13843Y12074J30*
X13841Y12065I30*
G03X13814Y11886I573J179*
X14414Y11286I600*
X15014Y11886J600*
X14414Y12486I600*
X14235Y12459J600*
G02X14226Y12457I9J28*
X14196Y12487J30*
X14197Y12493I30*
G03X14207Y12593I490J100*
X13707Y13093I500*
X13703J500*
G02X13673Y13123J30*
X13677Y13139I30*
G03X13724Y13300I253J161*
X13636Y13512I300*
G01X13212Y13936*
G03X13000Y14024I212J212*
X12788Y13936J300*
G01X12364Y13512*
G03X12276Y13300I212J212*
X12364Y13088I300*
G01X12440Y13012*
G02X12448Y12991I22J21*
G01Y-11576*
G02X12418Y-11606I30*
G01X10170*
G03X9852Y-11738J450*
G01X8648Y-12941*
G02X8627Y-12950I21J21*
G01X-11977*
G02X-12007Y-12920J30*
G01Y11757*
G03X-12139Y12075I450*
G01X-12774Y12710*
G02X-12783Y12732I21J22*
X-12782Y12738I30*
G03X-12776Y12800I294J62*
X-12823Y12961I300*
G02X-12827Y12977I26J16*
X-12797Y13007I30*
G03X-12793I4J500*
X-12293Y13507J500*
X-12303Y13607I500*
G02X-12304Y13613I29J6*
X-12274Y13643I30*
X-12265Y13641J30*
G03X-12086Y13614I179J573*
X-11486Y14214J600*
X-12037Y14812I600*
G02X-12056Y14821I2J30*
G01X-16729Y19494*
G03X-17047Y19626I318J318*
G01X-26849*
G03X-27167Y19494J450*
G01X-27379Y19282*
G03X-27511Y18963I318J319*
G01Y31737*
G02X-27365Y31863I27510J31736*
X-26924Y32237I27364J31862*
X-26477Y32604I26923J32236*
X-25569Y33322I26476J32603*
X-25107Y33671I25568J33321*
X-24641Y34014I25106J33670*
X-23214Y35003I24640J34013*
X-22730Y35319I23213J35002*
X-22241Y35629I22729J35318*
X-21748Y35932I22240J35628*
X-20749Y36518I21748J35931*
X-19735Y37076I20749J36517*
X-19223Y37344I19735J37075*
X-18186Y37860I19223J37343*
X-17136Y38346I18186J37859*
X-16606Y38579I17136J38345*
X-15537Y39022I16606J38578*
X-14998Y39232I15537J39021*
X-14456Y39435I14998J39231*
X-13911Y39630I14456J39434*
X-13364Y39818I13911J39629*
X-12814Y39999I13364J39817*
X-12261Y40171I12814J39998*
X-11707Y40337I12261J40170*
X-11150Y40494I11707J40336*
X-10591Y40644I11150J40493*
X-10030Y40786I10591J40643*
X-9467Y40920I10030J40785*
X-8902Y41047I9467J40919*
X-8336Y41165I8902J41046*
X-7768Y41276I8336J41164*
X-7198Y41380I7768J41275*
X-6628Y41475I7198J41379*
X-6055Y41562I6628J41474*
X-5482Y41642I6055J41561*
X-4908Y41713I5482J41641*
X-4441Y41766I4908J41712*
G01Y25433*
G03X-4141Y25133I300*
G01X3876*
G03X4176Y25433J300*
G01Y26312*
G03X3876Y26612I300*
G01X3678*
G02X3648Y26642J30*
G01Y27512*
G03X3348Y27812I300*
G01X-3206*
G03X-3506Y27512J300*
G01Y26642*
G02X-3536Y26612I30*
G01X-4141*
G03X-4441Y26312J300*
G01Y41766*
G02X-4333Y41777I4441J41765*
X-3757Y41833I4333J41776*
X-3180Y41880I3757J41832*
X-2603Y41920I3180J41879*
X-2200Y41943I2603J41919*
G01Y39600*
G03X0Y37400I2200*
X2200Y39600J2200*
X0Y41800I2200*
X-2200Y39600J2200*
G01Y41943*
G02X-2025Y41952I2200J41942*
X-1447Y41976I2025J41951*
X-868Y41992I1447J41975*
X-289Y42000I868J41991*
X0Y42001I289J41999*
X289Y42000J42000*
X868Y41992I289J41999*
X1447Y41976I868J41991*
X2025Y41952I1447J41975*
X2603Y41920I2025J41951*
X3180Y41880I2603J41919*
X3757Y41833I3180J41879*
X4333Y41777I3757J41832*
X4908Y41713I4333J41776*
X5482Y41642I4908J41712*
X6055Y41562I5482J41641*
X6628Y41475I6055J41561*
X7198Y41380I6628J41474*
X7768Y41276I7198J41379*
X8336Y41165I7768J41275*
X8902Y41047I8336J41164*
X9467Y40920I8902J41046*
X10030Y40786I9467J40919*
X10591Y40644I10030J40785*
X11150Y40494I10591J40643*
X11707Y40337I11150J40493*
X12261Y40171I11707J40336*
X12814Y39999I12261J40170*
X13364Y39818I12814J39998*
X13911Y39630I13364J39817*
X14456Y39435I13911J39629*
X14998Y39232I14456J39434*
X15537Y39022I14998J39231*
X16606Y38579I15537J39021*
X17136Y38346I16606J38578*
X18186Y37860I17136J38345*
X19223Y37344I18186J37859*
X19735Y37076I19223J37343*
X20749Y36518I19735J37075*
X21748Y35932I20749J36517*
X22241Y35629I21747J35931*
X22730Y35319I22240J35628*
X23214Y35003I22729J35318*
X23694Y34680I23213J35002*
X24641Y34014I23693J34679*
X25107Y33671I24640J34013*
X25569Y33322I25106J33670*
X26025Y32966I25568J33321*
X26477Y32604I26024J32965*
X26924Y32237I26476J32603*
X27365Y31863I26923J32236*
X27802Y31482I27364J31862*
X28659Y30704I27801J31481*
X29079Y30307I28658J30703*
X29494Y29903I29078J30306*
X29903Y29494I29493J29902*
X30307Y29079I29902J29493*
X30704Y28659I30306J29078*
X31482Y27802I30703J28658*
X31863Y27365I31481J27801*
X32237Y26924I31862J27364*
X32604Y26477I32236J26923*
X33322Y25569I32603J26476*
X33671Y25107I33321J25568*
X34014Y24641I33670J25106*
X35003Y23214I34013J24640*
X35319Y22730I35002J23213*
X35629Y22241I35318J22729*
X35932Y21748I35628J22240*
X36518Y20749I35931J21748*
X37076Y19735I36517J20749*
X37344Y19223I37075J19735*
X37400Y19113I37343J19223*
G01Y0*
G03X39600Y-2200I2200*
X41800Y0J2200*
X39600Y2200I2200*
X37400Y0J2200*
G01Y19113*
G02X37860Y18186I37399J19113*
X38346Y17136I37859J18186*
X38579Y16606I38345J17136*
X39022Y15537I38578J16606*
X39232Y14998I39021J15537*
X39435Y14456I39231J14998*
X39630Y13911I39434J14456*
X39818Y13364I39629J13911*
X39999Y12814I39817J13364*
X40171Y12261I39998J12814*
X40337Y11707I40170J12261*
X40494Y11150I40336J11707*
X40644Y10591I40493J11150*
X40786Y10030I40643J10591*
X40920Y9467I40785J10030*
X41047Y8902I40919J9467*
X41165Y8336I41046J8902*
X41276Y7768I41164J8336*
X41380Y7198I41275J7768*
X41475Y6628I41379J7198*
X41562Y6055I41474J6628*
X41642Y5482I41561J6055*
X41713Y4908I41641J5482*
X41777Y4333I41712J4908*
X41833Y3757I41776J4333*
X41880Y3180I41832J3757*
X41920Y2603I41879J3180*
X41952Y2025I41919J2603*
X41976Y1447I41951J2025*
X41992Y868I41975J1447*
X42000Y289I41991J868*
Y145I42000J144*
Y0I42000*
G01Y-289*
G02X41992Y-868I41999J289*
X41976Y-1447I41991J868*
X41952Y-2025I41975J1447*
X41920Y-2603I41951J2025*
X41880Y-3180I41919J2603*
X41833Y-3757I41879J3180*
X41777Y-4333I41832J3757*
X41713Y-4908I41776J4333*
X41642Y-5482I41712J4908*
X41562Y-6055I41641J5482*
X41475Y-6628I41561J6055*
X41380Y-7198I41474J6628*
X41276Y-7768I41379J7198*
X41165Y-8336I41275J7768*
X41047Y-8902I41164J8336*
X40920Y-9467I41046J8902*
X40786Y-10030I40919J9467*
X40644Y-10591I40785J10030*
X40494Y-11150I40643J10591*
X40337Y-11707I40493J11150*
X40171Y-12261I40336J11707*
X39999Y-12814I40170J12261*
X39818Y-13364I39998J12814*
X39630Y-13911I39817J13364*
X39435Y-14456I39629J13911*
X39232Y-14998I39434J14456*
X39022Y-15537I39231J14998*
X38579Y-16606I39021J15537*
X38346Y-17136I38578J16606*
X37860Y-18186I38345J17136*
X37344Y-19223I37859J18186*
X37076Y-19735I37343J19223*
X36518Y-20749I37075J19735*
X35932Y-21748I36517J20749*
X35629Y-22241I35931J21747*
X35319Y-22730I35628J22240*
X35003Y-23214I35318J22729*
X34680Y-23694I35002J23213*
X34014Y-24641I34679J23693*
X33671Y-25107I34013J24640*
X33322Y-25569I33670J25106*
X32966Y-26025I33321J25568*
X32604Y-26477I32965J26024*
X32237Y-26924I32603J26476*
X31863Y-27365I32236J26923*
X31482Y-27802I31862J27364*
X30704Y-28659I31481J27801*
X30307Y-29079I30703J28658*
X29903Y-29494I30306J29078*
X29494Y-29903I29902J29493*
X29079Y-30307I29493J29902*
X28659Y-30704I29078J30306*
X27802Y-31482I28658J30703*
X27365Y-31863I27801J31481*
X26924Y-32237I27364J31862*
X26477Y-32604I26923J32236*
X25569Y-33322I26476J32603*
X25107Y-33671I25568J33321*
X24641Y-34014I25106J33670*
X23214Y-35003I24640J34013*
X22730Y-35319I23213J35002*
X22241Y-35629I22729J35318*
X21748Y-35932I22240J35628*
X20749Y-36518I21748J35931*
X19735Y-37076I20749J36517*
X19223Y-37344I19735J37075*
X18186Y-37860I19223J37343*
X17136Y-38346I18186J37859*
X16606Y-38579I17136J38345*
X15537Y-39022I16606J38578*
X14998Y-39232I15537J39021*
X14456Y-39435I14998J39231*
X13911Y-39630I14456J39434*
X13364Y-39818I13911J39629*
X12814Y-39999I13364J39817*
X12261Y-40171I12814J39998*
X11707Y-40337I12261J40170*
X11150Y-40494I11707J40336*
X10591Y-40644I11150J40493*
X10030Y-40786I10591J40643*
X9467Y-40920I10030J40785*
X8902Y-41047I9467J40919*
X8336Y-41165I8902J41046*
X7768Y-41276I8336J41164*
X7198Y-41380I7768J41275*
X6628Y-41475I7198J41379*
X6055Y-41562I6628J41474*
X5482Y-41642I6055J41561*
X4908Y-41713I5482J41641*
X4333Y-41777I4908J41712*
X3757Y-41833I4333J41776*
X3180Y-41880I3757J41832*
X2603Y-41920I3180J41879*
X2025Y-41952I2603J41919*
X1447Y-41976I2025J41951*
X868Y-41992I1447J41975*
X289Y-42000I868J41991*
X0Y-42001I289J41999*
X-289Y-42000J42000*
X-868Y-41992I289J41999*
X-1447Y-41976I868J41991*
X-2025Y-41952I1447J41975*
X-2603Y-41920I2025J41951*
X-3180Y-41880I2603J41919*
X-3757Y-41833I3180J41879*
X-4333Y-41777I3757J41832*
X-4908Y-41713I4333J41776*
X-5482Y-41642I4908J41712*
X-6055Y-41562I5482J41641*
X-6628Y-41475I6055J41561*
X-7198Y-41380I6628J41474*
X-7768Y-41276I7198J41379*
X-8336Y-41165I7768J41275*
X-8902Y-41047I8336J41164*
X-9467Y-40920I8902J41046*
X-10030Y-40786I9467J40919*
X-10591Y-40644I10030J40785*
X-11150Y-40494I10591J40643*
X-11707Y-40337I11150J40493*
X-12261Y-40171I11707J40336*
X-12814Y-39999I12261J40170*
X-13364Y-39818I12814J39998*
X-13911Y-39630I13364J39817*
X-14456Y-39435I13911J39629*
X-14998Y-39232I14456J39434*
X-15537Y-39022I14998J39231*
X-16606Y-38579I15537J39021*
X-17136Y-38346I16606J38578*
X-18186Y-37860I17136J38345*
X-19223Y-37344I18186J37859*
X-19735Y-37076I19223J37343*
X-20749Y-36518I19735J37075*
X-21748Y-35932I20749J36517*
X-22241Y-35629I21747J35931*
X-22730Y-35319I22240J35628*
X-23214Y-35003I22729J35318*
X-23694Y-34680I23213J35002*
X-24641Y-34014I23693J34679*
X-25107Y-33671I24640J34013*
X-25569Y-33322I25106J33670*
X-26025Y-32966I25568J33321*
X-26477Y-32604I26024J32965*
X-26924Y-32237I26476J32603*
X-27365Y-31863I26923J32236*
X-27802Y-31482I27364J31862*
X-28659Y-30704I27801J31481*
X-29079Y-30307I28658J30703*
X-29494Y-29903I29078J30306*
X-29903Y-29494I29493J29902*
X-30307Y-29079I29902J29493*
X-30704Y-28659I30306J29078*
X-31482Y-27802I30703J28658*
X-31863Y-27365I31481J27801*
X-32237Y-26924I31862J27364*
X-32604Y-26477I32236J26923*
X-33322Y-25569I32603J26476*
X-33671Y-25107I33321J25568*
X-34014Y-24641I33670J25106*
X-35003Y-23214I34013J24640*
X-35319Y-22730I35002J23213*
X-35629Y-22241I35318J22729*
X-35932Y-21748I35628J22240*
X-36518Y-20749I35931J21748*
X-37076Y-19735I36517J20749*
X-37344Y-19223I37075J19735*
X-37860Y-18186I37343J19223*
X-38346Y-17136I37859J18186*
X-38579Y-16606I38345J17136*
X-39022Y-15537I38578J16606*
X-39232Y-14998I39021J15537*
X-39435Y-14456I39231J14998*
X-39630Y-13911I39434J14456*
X-39818Y-13364I39629J13911*
X-39999Y-12814I39817J13364*
X-40171Y-12261I39998J12814*
X-40337Y-11707I40170J12261*
X-40494Y-11150I40336J11707*
X-40644Y-10591I40493J11150*
X-40786Y-10030I40643J10591*
X-40920Y-9467I40785J10030*
X-41047Y-8902I40919J9467*
X-41165Y-8336I41046J8902*
X-41276Y-7768I41164J8336*
X-41380Y-7198I41275J7768*
X-41475Y-6628I41379J7198*
X-41562Y-6055I41474J6628*
X-41642Y-5482I41561J6055*
X-41713Y-4908I41641J5482*
X-41777Y-4333I41712J4908*
X-41833Y-3757I41776J4333*
X-41880Y-3180I41832J3757*
X-41920Y-2603I41879J3180*
X-41952Y-2025I41919J2603*
X-41976Y-1447I41951J2025*
X-41992Y-868I41975J1447*
X-42000Y-289I41991J868*
X-42001Y0I41999J289*
G01X14069Y-35302D02*
G03X14061Y-35281I30D01*
G01X12661Y-33882*
G03X12640Y-33873I21J21*
G01X-2966*
G02X-3284Y-33741J450*
G01X-19076Y-17949*
G02X-19207Y-17631I319J318*
G01Y-16714*
G02X-19076Y-16396I450*
G01X-14736Y-12056*
G02X-14664Y-11998I318J319*
G03X-14659Y-11994I16J25*
G01X-14621Y-11956*
G03X-14612Y-11937I21J21*
G02X-14014Y-11386I598J49*
X-13414Y-11986J600*
X-13441Y-12165I600*
G03X-13443Y-12174I28J9*
X-13413Y-12204I30*
X-13407Y-12203J30*
G02X-13307Y-12193I100J490*
X-12958Y-12335J500*
G03X-12937Y-12344I21J21*
X-12907Y-12314J30*
G01Y11558*
G03X-12916Y11579I30*
G01X-13410Y12074*
G03X-13432Y12083I22J21*
X-13438Y12082J30*
G02X-13500Y12076I62J294*
X-13712Y12164J300*
G01X-14136Y12588*
G02X-14224Y12800I212J212*
X-14136Y13012I300*
G01X-13712Y13436*
G02X-13500Y13524I212J212*
X-13339Y13477J300*
G03X-13323Y13473I16J26*
X-13293Y13503J30*
G02Y13507I500J4*
X-12793Y14007I500*
X-12693Y13997J500*
G03X-12687Y13996I6J29*
X-12657Y14026J30*
X-12659Y14035I30*
G02X-12684Y14166I573J179*
G03X-12693Y14185I30J3*
G01X-17225Y18717*
G03X-17246Y18726I21J21*
G01X-26581*
G03X-26611Y18696J30*
G01Y-12209*
G03X-26602Y-12230I30*
G01X-4569Y-34263*
G03X-4548Y-34272I21J21*
G01X11479*
G02X11798Y-34403J450*
G01X13142Y-35748*
G03X13161Y-35757I21J21*
G02X13390Y-35823I48J598*
G03X13404Y-35826I14J27*
X13433Y-35803J30*
G02X14019Y-35332I586J129*
X14038J600*
G01X14039*
G03X14069Y-35302J30*
G01X17973Y-34796D02*
G03X17943Y-34766I30D01*
X17929Y-34770J30*
G02X17644Y-34842I285J528*
X17367Y-34774J600*
G03X17353Y-34770I14J26*
X17324Y-34794J30*
G02X16738Y-35264I586J130*
X16461Y-35196J600*
G03X16447Y-35193I14J27*
X16417Y-35216J30*
G02X15832Y-35687I585J129*
X15554Y-35619J600*
G03X15540Y-35616I14J27*
X15511Y-35639J30*
G02X14925Y-36110I586J129*
X14648Y-36042J600*
G03X14634Y-36038I14J26*
X14605Y-36062J30*
G02X14019Y-36532I586J130*
X13742Y-36464J600*
G03X13728Y-36461I14J27*
X13698Y-36484J30*
G02X13113Y-36955I585J129*
X12749Y-36832J600*
G03X12730Y-36826I19J24*
X12701Y-36851J30*
G02X12206Y-37277I495J74*
X12031Y-37246J500*
G03X12021Y-37244I10J28*
X11991Y-37274J30*
X11992Y-37280I30*
G02X11999Y-37345I293J65*
X11998Y-37367I300*
G03Y-37369I30J2*
X12028Y-37399I30*
G01X15371*
G03X15392Y-37390J30*
G01X17964Y-34817*
G03X17973Y-34796I21J21*
G37*
G54D10*
G01X-3511Y26152D02*
X-3514Y26155D01*
X-3515Y26156*
X-3516*
X-3563Y26177*
X-3565Y26178*
X-3567*
X-3616Y26191*
X-3618Y26192*
X-3621*
X-3685Y26186*
X-3686Y26185*
X-3687*
X-3688*
X-3689Y26184*
X-3732Y26162*
X-3735Y26161*
X-3737Y26159*
X-3775Y26121*
X-3776Y26118*
X-3777Y26117*
X-3811Y26050*
X-3812Y26048*
Y26047*
X-3832Y25980*
Y25979*
Y25978*
X-3833*
Y25977*
Y25909*
Y25908*
Y25906*
X-3818Y25837*
Y25836*
X-3816Y25834*
X-3779Y25767*
Y25766*
X-3778Y25765*
X-3777Y25764*
X-3740Y25724*
X-3739*
X-3738Y25723*
X-3737Y25722*
X-3693Y25700*
X-3691Y25698*
X-3689*
X-3621Y25692*
X-3620*
X-3619*
X-3551Y25704*
X-3549Y25705*
X-3547Y25707*
X-3501Y25739*
X-3499Y25741*
X-3498Y25744*
X-3477Y25787*
X-3476Y25789*
Y25791*
X-3477Y25795*
X-3479Y25798*
X-3482Y25800*
X-3485Y25801*
X-3489*
X-3492Y25800*
X-3494Y25797*
X-3515Y25754*
X-3557Y25724*
X-3621Y25713*
X-3686Y25718*
X-3727Y25739*
X-3762Y25777*
X-3798Y25841*
X-3812Y25910*
Y25976*
X-3794Y26040*
X-3793Y26042*
X-3792Y26046*
X-3793Y26048*
X-3794Y26049*
X-3797Y26052*
X-3800Y26053*
X-3804Y26054*
X-3807Y26053*
X-3810Y26051*
X-3812Y26048*
Y26046*
Y26043*
X-3810Y26040*
X-3808Y26038*
X-3805Y26036*
X-3802Y26035*
X-3799Y26036*
X-3796Y26037*
X-3794Y26040*
X-3760Y26106*
X-3722Y26144*
X-3682Y26166*
X-3620Y26171*
X-3573Y26159*
Y26158*
X-3571*
X-3527Y26139*
X-3494Y26086*
X-3492Y26083*
X-3489Y26082*
X-3485Y26083*
X-3481Y26084*
X-3478Y26087*
X-3476Y26090*
Y26094*
X-3477Y26097*
X-3511Y26152*
X-3341Y25808D02*
Y26077D01*
X-3331Y26125*
X-3311Y26149*
X-3262Y26166*
X-3215Y26172*
X-3151*
X-3150*
X-3103Y26166*
X-3055Y26149*
X-3035Y26125*
X-3024Y26077*
Y25808*
X-3034Y25761*
X-3054Y25743*
X-3105Y25718*
X-3150Y25713*
X-3214*
X-3215*
X-3261Y25718*
X-3311Y25743*
X-3331Y25761*
X-3341Y25808*
X-3044Y25724D02*
X-3041Y25727D01*
X-3018Y25749*
X-3017Y25750*
X-3015Y25754*
X-3004Y25804*
Y25807*
Y26077*
Y26081*
X-3015Y26131*
X-3016Y26132*
Y26133*
X-3017*
X-3018Y26135*
X-3041Y26164*
X-3042*
X-3043Y26165*
Y26166*
X-3044Y26167*
X-3046*
X-3098Y26184*
X-3099Y26185*
X-3101Y26186*
X-3148Y26192*
X-3216*
X-3218*
X-3265Y26186*
X-3266Y26185*
X-3268Y26184*
X-3319Y26167*
X-3321Y26166*
X-3322*
X-3323Y26164*
X-3348Y26135*
X-3349Y26134*
X-3350Y26132*
X-3351Y26131*
X-3361Y26081*
X-3362Y26079*
X-3361Y26077*
Y25807*
X-3362Y25806*
X-3361Y25804*
X-3351Y25754*
X-3350Y25751*
X-3348Y25750*
X-3347Y25749*
X-3323Y25727*
X-3320Y25724*
X-3268Y25699*
X-3267*
X-3266*
X-3265*
X-3218Y25692*
X-3216*
X-3150*
X-3148*
X-3101Y25699*
X-3100*
X-3099*
X-3098*
X-3044Y25724*
X-2817Y25713D02*
X-2821Y25712D01*
X-2823Y25710*
X-2825Y25706*
Y25702*
Y25699*
X-2823Y25695*
X-2821Y25693*
X-2817Y25692*
X-2622*
X-2618Y25693*
X-2615Y25695*
X-2614Y25699*
X-2613Y25702*
X-2614Y25706*
X-2615Y25710*
X-2618Y25712*
X-2622Y25713*
X-2710*
Y26172*
X-2622*
X-2618Y26173*
X-2615Y26175*
X-2614Y26178*
X-2613Y26182*
X-2614Y26186*
X-2615Y26189*
X-2618Y26191*
X-2622Y26192*
X-2817*
X-2821Y26191*
X-2823Y26189*
X-2825Y26186*
Y26182*
Y26178*
X-2823Y26175*
X-2821Y26173*
X-2817Y26172*
X-2729*
Y25713*
X-2817*
X-2612Y27352D02*
X-2614Y27355D01*
X-2615Y27356*
X-2616*
X-2663Y27377*
X-2665Y27378*
X-2667*
X-2717Y27391*
X-2718Y27392*
X-2721*
X-2785Y27386*
X-2786Y27385*
X-2787*
X-2788*
X-2789Y27384*
X-2832Y27362*
X-2835Y27361*
X-2837Y27359*
X-2875Y27321*
X-2876Y27318*
X-2877Y27317*
X-2911Y27250*
X-2912Y27248*
Y27247*
X-2932Y27180*
Y27179*
Y27178*
X-2933*
Y27177*
Y27109*
Y27108*
Y27106*
X-2918Y27037*
Y27036*
X-2917*
Y27035*
Y27034*
X-2879Y26967*
X-2878Y26966*
X-2877Y26964*
X-2840Y26924*
X-2839*
Y26923*
X-2837Y26922*
X-2793Y26900*
X-2791Y26898*
X-2789*
X-2721Y26892*
X-2720*
X-2719*
X-2651Y26904*
X-2649Y26905*
X-2647Y26906*
X-2601Y26939*
X-2599Y26941*
X-2598Y26944*
X-2577Y26987*
Y26988*
X-2576*
Y26989*
Y26990*
Y26991*
Y26992*
Y27087*
Y27091*
X-2579Y27094*
X-2582Y27097*
X-2586Y27098*
X-2688*
X-2692Y27097*
X-2694Y27095*
X-2696Y27091*
Y27087*
Y27084*
X-2694Y27080*
X-2692Y27078*
X-2688Y27077*
X-2596*
Y26994*
X-2615Y26954*
X-2657Y26924*
X-2721Y26913*
X-2786Y26918*
X-2827Y26939*
X-2862Y26977*
X-2898Y27041*
X-2912Y27110*
Y27176*
X-2894Y27240*
X-2893Y27242*
Y27246*
Y27248*
X-2894Y27249*
X-2897Y27252*
X-2900Y27253*
X-2904Y27254*
X-2907Y27253*
X-2910Y27251*
X-2912Y27248*
Y27246*
Y27243*
X-2910Y27240*
X-2908Y27238*
X-2905Y27236*
X-2902Y27235*
X-2899Y27236*
X-2896Y27237*
X-2894Y27240*
X-2860Y27306*
X-2822Y27344*
X-2782Y27366*
X-2720Y27371*
X-2673Y27359*
Y27358*
X-2671*
X-2627Y27339*
X-2594Y27286*
X-2592Y27283*
X-2589Y27282*
X-2585Y27283*
X-2581Y27284*
X-2578Y27287*
X-2577Y27290*
X-2576Y27294*
X-2577Y27297*
X-2612Y27352*
X-2441Y27382D02*
X-2442Y27386D01*
X-2444Y27389*
X-2447Y27390*
X-2451Y27391*
X-2455Y27390*
X-2458Y27389*
X-2460Y27386*
X-2461Y27382*
Y26902*
X-2460Y26898*
X-2458Y26896*
X-2455Y26893*
X-2451Y26892*
X-2114*
X-2110Y26893*
X-2108Y26895*
X-2106Y26899*
Y26902*
Y26906*
X-2108Y26910*
X-2110Y26912*
X-2114Y26913*
X-2441*
Y27382*
X-2413Y26182D02*
X-2414Y26186D01*
X-2416Y26189*
X-2420Y26190*
X-2424Y26191*
X-2427Y26190*
X-2431Y26189*
X-2433Y26186*
X-2434Y26182*
Y25702*
X-2433Y25698*
X-2430Y25696*
X-2428Y25693*
X-2424Y25692*
X-2087*
X-2083Y25693*
X-2080Y25695*
X-2079Y25699*
X-2078Y25702*
X-2079Y25706*
X-2080Y25710*
X-2083Y25712*
X-2087Y25713*
X-2413*
Y26182*
X-1968Y27008D02*
Y27277D01*
X-1958Y27325*
X-1938Y27349*
X-1890Y27366*
X-1843Y27372*
X-1778*
X-1777*
X-1730Y27366*
X-1682Y27349*
X-1662Y27325*
X-1652Y27277*
Y27008*
X-1662Y26961*
X-1681Y26943*
X-1732Y26918*
X-1777Y26913*
X-1842*
X-1843*
X-1888Y26918*
X-1939Y26943*
X-1958Y26961*
X-1968Y27008*
X-1911Y25736D02*
X-1910Y25735D01*
X-1909Y25734*
X-1908Y25733*
X-1820Y25693*
X-1819Y25692*
X-1816*
X-1750*
X-1749*
X-1748*
X-1747*
X-1746Y25693*
X-1745*
X-1657Y25733*
X-1654Y25736*
X-1607Y25777*
X-1606Y25778*
Y25779*
X-1605Y25780*
Y25781*
Y25783*
X-1604*
Y25784*
Y25856*
X-1605Y25858*
X-1606Y25861*
Y25863*
X-1608Y25865*
X-1676Y25916*
X-1679Y25917*
X-1879Y25985*
X-1941Y26033*
Y26096*
X-1898Y26146*
X-1816Y26172*
X-1749*
X-1667Y26146*
X-1621Y26093*
X-1620Y26092*
X-1618Y26091*
X-1617Y26090*
X-1615*
X-1611Y26091*
X-1608Y26094*
X-1606Y26097*
X-1604Y26100*
Y26104*
X-1606Y26107*
X-1653Y26162*
X-1655Y26163*
X-1658Y26164*
Y26165*
X-1745Y26191*
X-1747Y26192*
X-1748*
X-1816*
X-1818*
X-1820Y26191*
X-1906Y26164*
X-1907*
X-1909Y26163*
X-1911Y26161*
X-1958Y26106*
X-1960Y26104*
X-1961Y26103*
Y26100*
Y26028*
Y26025*
X-1960Y26022*
X-1959Y26021*
X-1958Y26020*
X-1957Y26019*
X-1890Y25968*
X-1889Y25967*
X-1887*
X-1687Y25899*
X-1624Y25851*
Y25788*
X-1666Y25752*
X-1751Y25713*
X-1814*
X-1899Y25752*
X-1944Y25792*
X-1948Y25794*
X-1951*
X-1955Y25792*
X-1957Y25790*
X-1959Y25787*
X-1961Y25783*
Y25782*
X-1960Y25780*
X-1959Y25778*
X-1958Y25777*
X-1911Y25736*
X-1672Y26924D02*
X-1669Y26927D01*
X-1645Y26949*
Y26950*
X-1642Y26954*
X-1632Y27004*
Y27007*
Y27277*
Y27281*
X-1642Y27331*
X-1643Y27332*
X-1644Y27333*
X-1645Y27335*
X-1669Y27364*
X-1670*
Y27365*
Y27366*
X-1672Y27367*
X-1673*
X-1725Y27384*
X-1727Y27385*
X-1728Y27386*
X-1775Y27392*
X-1776*
X-1843*
X-1845*
X-1846*
X-1892Y27386*
X-1894Y27385*
X-1895Y27384*
X-1947Y27367*
X-1949Y27366*
X-1951Y27364*
X-1975Y27335*
X-1976Y27334*
X-1977*
X-1978Y27332*
Y27331*
X-1989Y27281*
Y27279*
Y27277*
Y27007*
Y27006*
Y27004*
X-1978Y26954*
Y26951*
X-1976Y26950*
X-1974Y26949*
X-1951Y26927*
X-1950*
X-1947Y26924*
X-1895Y26899*
X-1894*
X-1893*
X-1892*
X-1846Y26892*
X-1844*
X-1843*
X-1777*
X-1776*
X-1775*
X-1728Y26899*
X-1727*
X-1726*
X-1725*
X-1672Y26924*
X-1496Y27172D02*
X-1265D01*
X-1210Y27201*
X-1179Y27261*
Y27297*
X-1209Y27340*
X-1263Y27372*
X-1496*
Y27172*
X-1479Y26192D02*
X-1483Y26191D01*
X-1485Y26189*
X-1487Y26186*
Y26182*
Y26178*
X-1485Y26175*
X-1483Y26173*
X-1479Y26172*
X-1320*
Y25702*
X-1319Y25699*
X-1317Y25696*
X-1314Y25694*
X-1310*
X-1307*
X-1303Y25696*
X-1301Y25699*
X-1300Y25702*
Y26172*
X-1142*
X-1138Y26173*
X-1135Y26175*
X-1134Y26178*
X-1133Y26182*
X-1134Y26186*
X-1135Y26189*
X-1138Y26191*
X-1142Y26192*
X-1479*
X-1267Y27152D02*
X-1496D01*
Y26913*
X-1260*
X-1210Y26944*
X-1179Y27007*
Y27054*
X-1209Y27101*
X-1267Y27152*
X-1196Y26929D02*
X-1253Y26892D01*
X-1506*
X-1510Y26893*
X-1513Y26895*
X-1515Y26899*
X-1516Y26902*
Y27382*
X-1515Y27386*
X-1513Y27389*
X-1510Y27391*
X-1506Y27392*
X-1256*
X-1196Y27356*
X-1159Y27303*
Y27257*
X-1196Y27186*
X-1245Y27160*
X-1196Y27116*
X-1159Y27059*
Y27003*
X-1196Y26929*
X-1034Y27392D02*
X-1038Y27391D01*
X-1040Y27389*
X-1043Y27386*
X-1044Y27382*
Y26902*
X-1043Y26898*
X-1040Y26896*
X-1038Y26893*
X-1034Y26892*
X-697*
X-693Y26893*
X-690Y26895*
X-689Y26899*
X-688Y26902*
X-689Y26906*
X-690Y26910*
X-693Y26912*
X-697Y26913*
X-1023*
Y27132*
X-797*
X-793Y27133*
X-790Y27135*
X-789Y27139*
X-788Y27142*
X-789Y27146*
X-790Y27149*
X-793Y27151*
X-797Y27152*
X-1023*
Y27372*
X-697*
X-693Y27373*
X-690Y27375*
X-689Y27378*
X-688Y27382*
X-689Y27386*
X-690Y27389*
X-693Y27391*
X-697Y27392*
X-1034*
X-996Y25808D02*
Y26077D01*
X-986Y26125*
X-966Y26149*
X-917Y26166*
X-870Y26172*
X-806*
X-805*
X-758Y26166*
X-710Y26149*
X-690Y26125*
X-679Y26077*
Y25808*
X-689Y25761*
X-709Y25743*
X-760Y25718*
X-805Y25713*
X-869*
X-870*
X-916Y25718*
X-966Y25743*
X-986Y25761*
X-996Y25808*
X-699Y25724D02*
X-696Y25727D01*
X-673Y25749*
X-672Y25750*
X-670Y25754*
X-659Y25804*
Y25807*
Y26077*
Y26081*
X-670Y26131*
X-671Y26132*
Y26133*
X-672*
X-673Y26135*
X-696Y26164*
X-697*
X-698Y26165*
Y26166*
X-699Y26167*
X-701*
X-753Y26184*
X-754Y26185*
X-756Y26186*
X-803Y26192*
X-871*
X-873*
X-920Y26186*
X-921Y26185*
X-923Y26184*
X-974Y26167*
X-976Y26166*
X-977*
X-978Y26164*
X-1003Y26135*
X-1004Y26134*
X-1005Y26132*
X-1006Y26131*
X-1016Y26081*
X-1017Y26079*
X-1016Y26077*
Y25807*
X-1017Y25806*
X-1016Y25804*
X-1006Y25754*
X-1005Y25751*
X-1003Y25750*
X-1002Y25749*
X-978Y25727*
X-975Y25724*
X-923Y25699*
X-922*
X-921*
X-920*
X-873Y25692*
X-871*
X-805*
X-803*
X-756Y25699*
X-755*
X-754*
X-753*
X-699Y25724*
X-561Y27392D02*
X-565Y27391D01*
X-568Y27389*
X-569Y27386*
X-570Y27382*
X-569Y27378*
X-568Y27375*
X-565Y27373*
X-561Y27372*
X-403*
Y26902*
X-402Y26899*
X-400Y26896*
X-396Y26894*
X-393*
X-389*
X-386Y26896*
X-384Y26899*
X-383Y26902*
Y27372*
X-224*
X-220Y27373*
X-218Y27375*
X-216Y27378*
Y27382*
Y27386*
X-218Y27389*
X-220Y27391*
X-224Y27392*
X-561*
X-523Y26172D02*
X-284D01*
X-241Y26140*
X-207Y26093*
Y26032*
X-242Y25983*
X-284Y25952*
X-523*
Y26172*
X-225Y26154D02*
X-227Y26155D01*
X-228*
Y26156*
X-275Y26190*
X-277Y26191*
X-279Y26192*
X-281*
X-534*
X-538Y26191*
X-540Y26189*
X-543Y26186*
X-544Y26182*
Y25702*
X-543Y25699*
X-541Y25696*
X-537Y25694*
X-534*
X-530*
X-526Y25696*
X-524Y25699*
X-523Y25702*
Y25932*
X-281*
X-278*
X-277Y25933*
X-275Y25934*
X-228Y25968*
X-226Y25969*
X-225Y25972*
X-188Y26022*
Y26023*
X-187Y26024*
Y26025*
Y26026*
Y26028*
Y26097*
Y26099*
Y26100*
X-188Y26101*
Y26102*
X-225Y26154*
X-78Y27372D02*
X161D01*
X204Y27340*
X238Y27293*
Y27232*
X203Y27183*
X161Y27152*
X-78*
Y27372*
X220Y27354D02*
X218Y27355D01*
X217*
Y27356*
X170Y27390*
X168Y27391*
X166Y27392*
X164*
X-89*
X-93Y27391*
X-95Y27389*
X-98Y27386*
X-99Y27382*
Y26902*
X-98Y26898*
X-96Y26896*
X-92Y26894*
X-89*
X-85*
X-81Y26896*
X-79Y26898*
X-78Y26902*
Y27132*
X157*
X239Y26899*
X241Y26896*
X244Y26894*
X248Y26893*
X252Y26894*
X255Y26896*
X257Y26899*
X258Y26902*
Y26906*
X176Y27138*
X217Y27168*
X219Y27169*
X220Y27172*
X257Y27222*
Y27223*
X258Y27224*
Y27225*
Y27226*
Y27228*
Y27297*
Y27299*
Y27300*
X257Y27301*
Y27302*
X220Y27354*
X355Y25914D02*
X516D01*
X519*
X522Y25912*
X523Y25909*
X524Y25906*
X523Y25902*
X522Y25900*
X519Y25898*
X516Y25897*
X355*
X352Y25898*
X349Y25900*
X348Y25902*
X347Y25906*
X348Y25909*
X349Y25912*
X351Y25914*
X355*
X394Y27008D02*
Y27277D01*
X404Y27325*
X424Y27349*
X473Y27366*
X520Y27372*
X584*
X585*
X632Y27366*
X680Y27349*
X700Y27325*
X711Y27277*
Y27008*
X701Y26961*
X681Y26943*
X630Y26918*
X585Y26913*
X521*
X520*
X474Y26918*
X424Y26943*
X404Y26961*
X394Y27008*
X691Y26924D02*
X694Y26927D01*
X717Y26949*
X718Y26950*
X720Y26954*
X731Y27004*
Y27007*
Y27277*
Y27281*
X720Y27331*
X719Y27332*
Y27333*
X718*
X717Y27335*
X694Y27364*
X693*
X692Y27365*
Y27366*
X691Y27367*
X689*
X637Y27384*
X636Y27385*
X634Y27386*
X587Y27392*
X519*
X517*
X470Y27386*
X469Y27385*
X467Y27384*
X416Y27367*
X414Y27366*
X413*
X412Y27364*
X387Y27335*
X386Y27334*
X385Y27332*
X384Y27331*
X374Y27281*
X373Y27279*
X374Y27277*
Y27007*
X373Y27006*
X374Y27004*
X384Y26954*
X385Y26951*
X387Y26950*
X388Y26949*
X412Y26927*
X415Y26924*
X467Y26899*
X468*
X469*
X470*
X517Y26892*
X519*
X585*
X587*
X634Y26899*
X635*
X636*
X637*
X691Y26924*
X856Y27392D02*
X852Y27391D01*
X850Y27389*
X848Y27386*
Y27382*
Y27378*
X850Y27375*
X852Y27373*
X856Y27372*
X1015*
Y26902*
X1016Y26899*
X1018Y26896*
X1021Y26894*
X1025*
X1028*
X1032Y26896*
X1034Y26899*
X1035Y26902*
Y27372*
X1193*
X1197Y27373*
X1200Y27375*
X1201Y27378*
X1202Y27382*
X1201Y27386*
X1200Y27389*
X1197Y27391*
X1193Y27392*
X856*
X1118Y26172D02*
X1358D01*
X1400Y26140*
X1435Y26093*
Y26032*
X1399Y25983*
X1358Y25952*
X1118*
Y26172*
X1329Y27392D02*
X1325Y27391D01*
X1322Y27389*
X1321Y27386*
X1320Y27382*
X1321Y27378*
X1322Y27375*
X1325Y27373*
X1329Y27372*
X1487*
Y26902*
X1488Y26899*
X1490Y26896*
X1494Y26894*
X1497*
X1501*
X1504Y26896*
X1506Y26899*
X1507Y26902*
Y27372*
X1666*
X1670Y27373*
X1672Y27375*
X1674Y27378*
Y27382*
Y27386*
X1672Y27389*
X1670Y27391*
X1666Y27392*
X1329*
X1416Y26154D02*
X1415Y26155D01*
X1414*
Y26156*
X1367Y26190*
X1364Y26191*
X1363Y26192*
X1360*
X1108*
X1104Y26191*
X1101Y26189*
X1099Y26186*
X1098Y26182*
Y25702*
X1099Y25698*
X1101Y25696*
X1104Y25694*
X1108*
X1112*
X1115Y25696*
X1117Y25698*
X1118Y25702*
Y25932*
X1353*
X1435Y25699*
X1437Y25696*
X1441Y25694*
X1445Y25693*
X1448Y25694*
X1451Y25696*
X1454Y25699*
X1455Y25702*
X1454Y25706*
X1373Y25938*
X1414Y25968*
X1415Y25969*
X1417Y25972*
X1453Y26022*
Y26023*
X1454*
Y26024*
Y26025*
X1455Y26026*
Y26028*
Y26097*
X1454Y26099*
Y26100*
Y26101*
X1453*
Y26102*
X1416Y26154*
X1580Y26192D02*
X1576Y26191D01*
X1574Y26189*
X1571Y26186*
X1570Y26182*
Y25702*
X1571Y25698*
X1574Y25696*
X1576Y25693*
X1580Y25692*
X1917*
X1921Y25693*
X1924Y25695*
X1925Y25699*
X1926Y25702*
X1925Y25706*
X1924Y25710*
X1921Y25712*
X1917Y25713*
X1591*
Y25932*
X1817*
X1821Y25933*
X1824Y25935*
X1825Y25939*
X1826Y25942*
X1825Y25946*
X1824Y25949*
X1821Y25951*
X1817Y25952*
X1591*
Y26172*
X1917*
X1921Y26173*
X1924Y26175*
X1925Y26178*
X1926Y26182*
X1925Y26186*
X1924Y26189*
X1921Y26191*
X1917Y26192*
X1580*
X1801Y27392D02*
X1797Y27391D01*
X1795Y27389*
X1792Y27386*
X1791Y27382*
Y26902*
X1792Y26898*
X1795Y26896*
X1797Y26893*
X1801Y26892*
X2138*
X2142Y26893*
X2145Y26895*
X2146Y26899*
X2147Y26902*
X2146Y26906*
X2145Y26910*
X2142Y26912*
X2138Y26913*
X1812*
Y27132*
X2038*
X2042Y27133*
X2045Y27135*
X2046Y27139*
X2047Y27142*
X2046Y27146*
X2045Y27149*
X2042Y27151*
X2038Y27152*
X1812*
Y27372*
X2138*
X2142Y27373*
X2145Y27375*
X2146Y27378*
X2147Y27382*
X2146Y27386*
X2145Y27389*
X2142Y27391*
X2138Y27392*
X1801*
X2062Y26185D02*
X2060Y26189D01*
X2057Y26191*
X2053*
X2050Y26190*
X2046Y26188*
X2044Y26186*
X2043Y26183*
Y26179*
X2212Y25699*
X2213Y25697*
X2215Y25695*
X2217Y25694*
X2220*
X2223*
X2226*
X2229Y25696*
X2231Y25699*
X2399Y26179*
X2400Y26183*
X2398Y26186*
X2396Y26188*
X2393Y26190*
X2390Y26191*
X2386*
X2382Y26189*
X2380Y26185*
X2221Y25733*
X2062Y26185*
X2284Y27372D02*
X2524D01*
X2566Y27340*
X2601Y27293*
Y27232*
X2565Y27183*
X2524Y27152*
X2284*
Y27372*
X2582Y27354D02*
X2581Y27355D01*
X2580*
Y27356*
X2533Y27390*
X2530Y27391*
X2529Y27392*
X2526*
X2274*
X2270Y27391*
X2267Y27389*
X2265Y27386*
X2264Y27382*
Y26902*
X2265Y26898*
X2267Y26896*
X2270Y26894*
X2274*
X2278*
X2281Y26896*
X2283Y26898*
X2284Y26902*
Y27132*
X2519*
X2601Y26899*
X2603Y26896*
X2607Y26894*
X2611Y26893*
X2614Y26894*
X2617Y26896*
X2620Y26899*
X2621Y26902*
X2620Y26906*
X2539Y27138*
X2580Y27168*
X2581Y27169*
X2583Y27172*
X2619Y27222*
Y27223*
X2620*
Y27224*
Y27225*
X2621Y27226*
Y27228*
Y27297*
X2620Y27299*
Y27300*
Y27301*
X2619*
Y27302*
X2582Y27354*
X2622Y25695D02*
X2624Y25694D01*
X2626*
X2627Y25693*
X2628*
X2641*
X2642Y25694*
X2644*
X2646Y25695*
X2659Y25708*
X2660Y25710*
X2661Y25712*
Y25714*
Y25727*
Y25728*
X2660Y25730*
X2659Y25732*
X2646Y25745*
X2644Y25746*
X2642Y25747*
X2641*
X2628*
X2626*
X2624Y25746*
X2622Y25745*
X2609Y25732*
X2608Y25731*
Y25728*
Y25727*
Y25714*
Y25712*
Y25710*
X2609Y25708*
X2622Y25695*
X2623Y25723D02*
X2631Y25732D01*
X2637*
X2646Y25723*
Y25717*
X2637Y25709*
X2631*
X2623Y25717*
Y25723*
X2787Y26936D02*
X2788Y26935D01*
X2789Y26934*
X2790Y26933*
X2878Y26893*
X2879Y26892*
X2881*
X2947*
X2949*
X2950*
X2951*
Y26893*
X2952*
X3040Y26933*
X3043Y26936*
X3090Y26977*
X3091Y26978*
X3092Y26979*
Y26980*
X3093Y26981*
Y26983*
Y26984*
Y27056*
Y27058*
X3092Y27061*
X3091Y27063*
X3090Y27065*
X3022Y27116*
X3018Y27117*
X2818Y27185*
X2757Y27233*
Y27296*
X2800Y27346*
X2882Y27372*
X2948*
X3031Y27346*
X3076Y27293*
X3078Y27292*
X3079Y27291*
X3081Y27290*
X3083*
X3086Y27291*
X3089Y27294*
X3092Y27297*
X3093Y27300*
Y27304*
X3091Y27307*
X3044Y27362*
X3042Y27363*
X3040Y27364*
X3039*
Y27365*
X2952Y27391*
X2951Y27392*
X2949*
X2881*
X2879*
X2878Y27391*
X2791Y27364*
X2789Y27363*
X2786Y27361*
X2739Y27306*
X2737Y27304*
Y27303*
X2736Y27300*
Y27228*
X2737Y27225*
X2738Y27222*
X2739Y27221*
X2740Y27220*
X2741Y27219*
X2808Y27168*
X2809Y27167*
X2811*
X3010Y27099*
X3073Y27051*
Y26988*
X3032Y26952*
X2946Y26913*
X2884*
X2798Y26952*
X2753Y26992*
X2750Y26994*
X2746*
X2743Y26992*
X2740Y26990*
X2738Y26987*
X2737Y26983*
Y26982*
Y26980*
X2738Y26978*
X2740Y26977*
X2786Y26936*
X2787*
X3251Y25972D02*
X3482D01*
X3537Y26001*
X3567Y26061*
Y26097*
X3537Y26140*
X3484Y26172*
X3251*
Y25972*
X3479Y25952D02*
X3251D01*
Y25713*
X3487*
X3537Y25744*
X3567Y25807*
Y25854*
X3537Y25901*
X3479Y25952*
X3551Y25729D02*
X3493Y25692D01*
X3240*
X3237Y25693*
X3233Y25695*
X3231Y25699*
X3230Y25702*
Y26182*
X3231Y26186*
X3233Y26189*
X3237Y26191*
X3240Y26192*
X3490*
X3550Y26156*
X3587Y26103*
Y26057*
X3551Y25986*
X3502Y25960*
X3550Y25916*
X3587Y25859*
Y25803*
X3551Y25729*
X42250Y0D02*
G03X0Y42250I42250D01*
X-42250Y0J42250*
X0Y-42250I42250*
X42250Y0J42250*
G54D11*
G01X-39600D03*
X0Y-39600D03*
Y0D03*
Y39600D03*
X39600Y0D03*
G54D12*
X-25800Y-24150D02*
X-26125Y-24296D01*
X-25800Y-23850D02*
X-26063Y-23587D01*
X-25800Y24850D02*
X-26125Y24704D01*
X-25800Y25150D02*
X-26063Y25413D01*
X-25200Y-24150D02*
X-24875Y-24296D01*
X-25200Y-23850D02*
X-24937Y-23587D01*
X-25200Y24850D02*
X-24875Y24704D01*
X-25200Y25150D02*
X-24937Y25413D01*
X-13307Y-12693D02*
X-13837Y-12710D01*
X-13307Y-12693D02*
X-13426Y-13209D01*
X-13307Y-12693D02*
X-13239Y-12167D01*
X-12793Y13507D02*
X-12861Y14033D01*
X-12793Y13507D02*
X-12263Y13490D01*
X-12793Y13507D02*
X-12674Y12991D01*
X12206Y-36777D02*
X11982Y-36297D01*
X12206Y-36777D02*
X12436Y-37255D01*
X12793Y-13307D02*
X12674Y-12791D01*
X12793Y-13307D02*
X12263Y-13290D01*
X12793Y-13307D02*
X12861Y-13833D01*
X13707Y12593D02*
X13639Y12067D01*
X13707Y12593D02*
X14237Y12610D01*
X13707Y12593D02*
X13826Y13109D01*
X25200Y-24150D02*
X24875Y-24296D01*
X25200Y-23850D02*
X24937Y-23587D01*
X25200Y24850D02*
X24875Y24704D01*
X25200Y25150D02*
X24937Y25413D01*
X25800Y-24150D02*
X26125Y-24296D01*
X25800Y-23850D02*
X26063Y-23587D01*
X25800Y24850D02*
X26125Y24704D01*
X25800Y25150D02*
X26063Y25413D01*
G54D13*
X-25500Y-25000D02*
X-25350D01*
X-24200Y-26150*
Y-27750*
X-25500Y20750D02*
X21387D01*
X21599Y20538*
Y-28893*
X16738Y-33754*
Y-34664*
X-25500Y24000D02*
Y21850D01*
X-14014Y-11986D02*
X-14403Y-12375D01*
X-14418*
X-18757Y-16714*
Y-17631*
X-2966Y-33423*
X12839*
X14925Y-35510*
X-13500Y12800D02*
X-12457Y11757D01*
Y-13257*
X-12600Y-13400*
X-12086Y14214D02*
X-17047Y19176D01*
X-26849*
X-27061Y18963*
Y-12408*
X-4747Y-34722*
X11479*
X13113Y-36355*
X12898Y-12056D02*
X10170D01*
X8826Y-13400*
X-12600*
X12898Y-12056D02*
Y13198D01*
X13000Y13300*
X13500Y-12600D02*
X12956Y-12056D01*
X12898*
X17940Y-33652D02*
X17644Y-34242D01*
X18550Y-33819D02*
X18900Y-34518D01*
X15570Y-37849*
X6170*
X4632Y-36310*
X-16951*
X-23846Y-29415*
Y-28850*
X-24200*
X19867Y-32879D02*
X24896Y-27850D01*
X25500*
X19867Y-32879D02*
X19457Y-33396D01*
X25500Y-25000D02*
Y-26750D01*
Y20650D02*
X25461D01*
X22001Y17190*
Y-29591*
X17940Y-33652*
X25500Y24000D02*
Y21750D01*
G54D14*
X-13500Y12800D03*
X-12600Y-13400D03*
X13000Y13300D03*
X13500Y-12600D03*
G54D15*
X-14014Y-11986D03*
X-13307Y-12693D03*
X-12793Y13507D03*
X-12086Y14214D03*
X12086Y-14014D03*
X12206Y-36777D03*
X12793Y-13307D03*
X13113Y-36355D03*
X13707Y12593D03*
X14019Y-35932D03*
X14414Y11886D03*
X14925Y-35510D03*
X15832Y-35087D03*
X16738Y-34664D03*
X17644Y-34242D03*
X18550Y-33819D03*
X19457Y-33396D03*
G54D16*
X-25500Y20750D03*
Y21850D03*
X-24200Y-28850D03*
Y-27750D03*
X25500Y-27850D03*
Y-26750D03*
Y20650D03*
Y21750D03*
G54D17*
X-25500Y-25000D03*
Y-24000D03*
Y24000D03*
Y25000D03*
X25500Y-25000D03*
Y-24000D03*
Y24000D03*
Y25000D03*
G54D18*
X11300Y-37200D03*
M02*
