; Version : LOCAL
; Job     : C:\temp\CoilsTopRevB\PCB\CoilsTopRevB.pcb
; User    : E217PC09:e217
; Date    : Tue Apr 25 16:50:11 2017
; Format  : 2.4 / Absolute / Inch / Trailing
; Contents: Thru / Drill / Plated
M48
INCH,LZ
FMAT,2
ICI,OFF
T01C0.0350
%
M72
G90
G93X0Y0
T01
X0113Y-0372
X013113Y-036355
X012206Y-036777
X014019Y-035932
X014925Y-03551
X015832Y-035087
X017644Y-034242
X016738Y-034664
X01855Y-033819
X019457Y-033396
X012086Y-014014
X-0126Y-0134
X012793Y-013307
X0135Y-0126
X-013307Y-012693
X-014014Y-011986
X014414Y011886
X013707Y012593
X-0135Y0128
X-012793Y013507
X013Y0133
X-012086Y014214
T00
M30
