; Version : LOCAL
; Job     : C:\temp\CommandModule\PCB\CommandModule.pcb
; User    : E217PC02:E217
; Date    : Fri Apr 28 16:38:05 2017
; Format  : 2.4 / Absolute / Inch / Trailing
; Contents: Thru / Drill / Plated
M48
INCH,LZ
FMAT,2
ICI,OFF
T02C0.0230
T01C0.0350
T03C0.1290
%
M72
G90
G93X0Y0
T02
X-004096Y-018606
X-008782Y-018378
X-019835Y-008572
X-017556Y-007054
X-009555Y-005804
X-015587Y-000942
X-020286Y003098
X-012651Y011326
T01
X0131Y-0205
X0121
X0111
X0101
X0091
X0081
X-0127Y-0167
X-0137
Y-0157
X-0127
Y-0147
X-0137
Y-0137
X-0127
Y-0127
X-0137
Y-0117
X-0127
Y-0107
X-0137
Y-0097
X-0127
Y-0087
X-0137
Y-0077
X-0127
Y-0067
X-0137
Y-0057
X-0127
Y-0047
X-0137
Y-0037
X-0127
Y-0027
X-0137
Y-0017
X-0127
Y-0007
Y0003
X-0137Y-0007
Y0003
Y0013
X-0127
Y0023
X-0137
X-0153Y0077
X-0143
X-0133
X-0123
T03
X0252Y0
X-0252
T00
M30
