; Version : LOCAL
; Job     : K:\coilbottom_final_2.0\PCB\Coils_bottom_2.pcb
; User    : E217PC11:e217
; Date    : Wed Apr 26 16:50:31 2017
; Format  : 2.4 / Absolute / Inch / Trailing
; Contents: Thru / Drill / Plated
M48
INCH,LZ
FMAT,2
ICI,OFF
T03C0.0330
T02C0.0340
T01C0.0350
T05C0.0400
T06C0.0800
T04C0.0850
%
M72
G90
G93X0Y0
T03
X001703Y-014821
X001001Y-014099
X-014641Y-001822
X-013919Y-00112
X01378Y00112
X014502Y001822
X-001139Y014
X-001841Y014721
T02
X006824Y-032171
X005918Y-032594
X007731Y-031749
X008637Y-031326
X011356Y-030058
X01045Y-030481
X009543Y-030904
X00465Y-029875
X005556Y-029452
X006463Y-02903
X012262Y-029636
X013168Y-029213
X014981Y-028368
X014075Y-02879
X008275Y-028185
X007369Y-028607
X009182Y-027762
X010088Y-027339
X015887Y-027945
X016794Y-027523
X0177Y-0271
X012807Y-026072
X011901Y-026494
X010994Y-026917
X013713Y-025649
X01462Y-025226
X016432Y-024381
X015526Y-024804
T01
X011306Y-037232
X013119Y-036386
X012213Y-036809
X0074Y-0353
X014025Y-035964
X014932Y-035541
X015838Y-035119
X017651Y-034273
X016744Y-034696
X010119Y-034032
X009213Y-034455
X008306Y-034877
X011025Y-03361
X011932Y-033187
X018557Y-033851
X019463Y-033428
X013744Y-032342
X012838Y-032764
X01465Y-031919
X015557Y-031496
X016463Y-031074
X018276Y-030229
X017369Y-030651
X019182Y-029806
X0215Y-0265
X004206Y-026177
X0033Y-0266
X005113Y-025755
X006019Y-025332
X021077Y-025594
X020655Y-024687
X008738Y-024064
X007832Y-024487
X006925Y-02491
X009644Y-023642
X01055Y-023219
X020232Y-023781
X01981Y-022875
X012363Y-022374
X011457Y-022796
X013269Y-021951
X014176Y-021529
X015082Y-021106
X019387Y-021968
X026Y0013
Y0023
T05
X-034275Y-014425
Y-013425
Y-012425
Y-011425
Y-010425
Y-009425
Y-008425
Y-007425
Y-006425
Y-005425
X-034475Y-001125
Y-000125
Y000875
Y001875
Y002875
Y003875
Y004875
Y005875
Y006875
Y007875
T06
X-016085Y005981
T04
X-020925Y-013875
Y-011905
Y-009935
Y-007965
X-017104Y-001918
X-017141Y000318
X-021125Y-000575
Y001395
Y003365
Y005335
T00
M30
