*
G04 Job   : C:\temp\GT_PowerBoard\PCB\GT_PowerBoard.pcb*
G04 User  : E217PC08:e217*
G04 Layer : Bot.gdo*
G04 Date  : Sun Apr 30 17:13:37 2017*
G04 VeriBest Example Gerber Output Definition*
%ICAS*%
%MOIN*%
%FSLAX24Y24*%
%OFA0.0000B0.0000*%
G90*
G74*
%AMVB_RECTANGLE*
21,1,$1,$2,0,0,$3*
%
%ADD10C,0.02000*%
%ADD12C,0.03000*%
%ADD11C,0.06000*%
%ADD15C,0.09000*%
%ADD13VB_RECTANGLE,0.06000X0.06000X270.00000*%
%ADD14VB_RECTANGLE,0.09000X0.09000X270.00000*%
G01*
G36*
X200Y31270D02*
G02X230Y31300I30D01*
G01X1000*
Y3000*
G03X1235Y2707I300*
G02X1258Y2678I7J29*
X1249Y2656I30*
G03X1100Y2300I351J356*
X1600Y1800I500*
X2100Y2300J500*
X1958Y2649I500*
G02X1949Y2670I21J21*
X1979Y2700I30*
G01X12765*
Y1515*
G03X13415Y865I650*
X14065Y1515J650*
X13415Y2165I650*
X12765Y1515J650*
G01Y2700*
X14755*
G02X14785Y2670J30*
G01Y2242*
G02X14771Y2216I30*
G03X14635Y1965I164J251*
G01Y1065*
G03X14935Y765I300*
G01X15835*
G03X16086Y901J300*
G02X16112Y915I26J16*
G01X16688*
G02X16714Y901J30*
G03X16965Y765I251J164*
G01X17865*
G03X18165Y1065J300*
G01Y1965*
G03X18029Y2216I300*
G02X18015Y2242I16J26*
G01Y2797*
G02X18045Y2827I30*
G01X18735*
Y1515*
G03X19385Y865I650*
X20035Y1515J650*
X19385Y2165I650*
X18735Y1515J650*
G01Y2827*
X20965*
Y1515*
G03X21615Y865I650*
X22265Y1515J650*
X21615Y2165I650*
X20965Y1515J650*
G01Y2827*
X22955*
G02X22985Y2797J30*
G01Y2242*
G02X22971Y2216I30*
G03X22835Y1965I164J251*
G01Y1065*
G03X23135Y765I300*
G01X24035*
G03X24286Y901J300*
G02X24312Y915I26J16*
G01X25088*
G02X25114Y901J30*
G03X25365Y765I251J164*
G01X26265*
G03X26565Y1065J300*
G01Y1965*
G03X26429Y2216I300*
G02X26415Y2242I16J26*
G01Y2684*
G02X26424Y2705I30*
G01X26479Y2760*
G02X26500Y2769I21J21*
G01X27135*
Y1515*
G03X27785Y865I650*
X28435Y1515J650*
X27785Y2165I650*
X27135Y1515J650*
G01Y2769*
X32665*
Y1515*
G03X33315Y865I650*
X33965Y1515J650*
X33315Y2165I650*
X32665Y1515J650*
G01Y2769*
X34555*
G02X34576Y2760J30*
G01X34676Y2660*
G02X34685Y2639I21J21*
G01Y2242*
G02X34671Y2216I30*
G03X34535Y1965I164J251*
G01Y1065*
G03X34835Y765I300*
G01X35735*
G03X36035Y1065J300*
G01Y1965*
G03X35899Y2216I300*
G02X35885Y2242I16J26*
G01Y2270*
G02X35915Y2300I30*
G01X36721*
G02X36751Y2270J30*
X36742Y2249I30*
G03X36600Y1900I358J349*
X37100Y1400I500*
X37600Y1900J500*
X37451Y2256I500*
G02X37442Y2278I21J22*
X37465Y2307I30*
G03X37700Y2600I65J293*
G01Y3200*
G03X37400Y3500I300*
G01X35546*
G02X35525Y3509J30*
G01X35240Y3793*
G03X35087Y3904I424J424*
G02X35071Y3931I14J27*
G01Y10120*
G02X35101Y10150I30*
G01X36110*
Y8630*
G03X36760Y7980I650*
X37410Y8630J650*
X36760Y9280I650*
X36110Y8630J650*
G01Y10150*
X36145*
G02X36169Y10138J30*
G03X36760Y9850I591J462*
X37510Y10600J750*
X36760Y11350I750*
X36169Y11062J750*
G02X36145Y11050I24J18*
G01X34683*
G03X34460Y10991J450*
G02X34447Y10987I14J26*
G03X33871Y10388I24J599*
G01Y3999*
G02X33841Y3969I30*
G01X26239*
G03X25815Y3793J600*
G01X25391Y3369*
G03X25215Y2945I424J424*
G01Y2242*
G02X25201Y2216I30*
G03X25114Y2129I164J251*
G02X25088Y2115I26J16*
G01X24312*
G02X24286Y2129J30*
G03X24199Y2216I251J164*
G02X24185Y2242I16J26*
G01Y3215*
G03X24009Y3639I600*
G01X23797Y3852*
G03X23373Y4027I424J425*
G01X17627*
G03X17203Y3852J600*
G01X16991Y3639*
G03X16815Y3215I424J424*
G01Y2242*
G02X16801Y2216I30*
G03X16714Y2129I164J251*
G02X16688Y2115I26J16*
G01X16112*
G02X16086Y2129J30*
G03X15999Y2216I251J164*
G02X15985Y2242I16J26*
G01Y3088*
G03X15809Y3512I600*
G01X15597Y3724*
G03X15173Y3900I424J424*
G01X1300*
G03X1000Y3600J300*
G01Y31300*
X1300*
Y17300*
G03X1535Y17007I300*
G02X1558Y16978I7J29*
X1549Y16956I30*
G03X1400Y16600I351J356*
X1900Y16100I500*
X2400Y16600J500*
X2251Y16956I500*
G02X2242Y16978I21J22*
X2265Y17007I30*
G03X2500Y17300I65J293*
G01Y19121*
G02X2509Y19142I30*
G01X2564Y19197*
G02X2585Y19206I21J21*
G01X9065*
Y15750*
G03X9840Y14975I775*
X10615Y15750J775*
X9840Y16525I775*
X9065Y15750J775*
G01Y19206*
X11765*
Y17815*
G03X12415Y17165I650*
X13065Y17815J650*
X12415Y18465I650*
X11765Y17815J650*
G01Y19206*
X13136*
G02X13157Y19197J30*
G01X13212Y19142*
G02X13221Y19121I21J21*
G01Y18665*
G03X13397Y18241I600*
G01X13626Y18011*
G02X13635Y17990I21J21*
G01Y17365*
G03X13935Y17065I300*
G01X14274*
G02X14295Y17056J30*
G01X14691Y16660*
G02X14700Y16639I21J21*
G01Y11327*
G02X14686Y11301I30*
G03X14550Y11050I164J251*
G01Y10150*
G03X14650Y9926I300*
G01Y8630*
G03X15300Y7980I650*
X15950Y8630J650*
X15300Y9280I650*
X14650Y8630J650*
G01Y9926*
G03X14850Y9850I200J224*
G01X15750*
G03X16050Y10150J300*
G01Y11050*
G03X15914Y11301I300*
G02X15900Y11327I16J26*
G01Y16900*
G03X15815Y17207I600*
G02X15811Y17222I26J15*
X15841Y17252I30*
X15862Y17245J30*
G03X16065Y17165I203J220*
G01X16965*
G03X17265Y17465J300*
G01Y18365*
G03X17129Y18616I300*
G02X17115Y18642I16J26*
G01Y19765*
G02X17124Y19786I30*
G01X17179Y19841*
G02X17200Y19850I21J21*
G01X17835*
Y17915*
G03X18485Y17265I650*
X19135Y17915J650*
X18485Y18565I650*
X17835Y17915J650*
G01Y19850*
X19565*
Y17915*
G03X20215Y17265I650*
X20865Y17915J650*
X20215Y18565I650*
X19565Y17915J650*
G01Y19850*
X21500*
G02X21521Y19841J30*
G01X21576Y19786*
G02X21585Y19765I21J21*
G01Y18642*
G02X21571Y18616I30*
G03X21435Y18365I164J251*
G01Y17465*
G03X21735Y17165I300*
G01X22635*
G03X22886Y17301J300*
G02X22912Y17315I26J16*
G01X23024*
G02X23041Y17310J30*
G03X23365Y17215I324J505*
G01X23488*
G02X23514Y17201J30*
G03X23765Y17065I251J164*
G01X24665*
G03X24965Y17365J300*
G01Y18265*
G03X24829Y18516I300*
G02X24815Y18542I16J26*
G01Y19699*
G02X24824Y19721I30*
G01X24879Y19776*
G02X24900Y19785I21J21*
G01X25535*
Y17815*
G03X26185Y17165I650*
X26835Y17815J650*
X26185Y18465I650*
X25535Y17815J650*
G01Y19785*
X28755*
Y15750*
G03X29530Y14975I775*
X30305Y15750J775*
X29530Y16525I775*
X28755Y15750J775*
G01Y19785*
X31565*
Y17715*
G03X32215Y17065I650*
X32865Y17715J650*
X32215Y18365I650*
X31565Y17715J650*
G01Y19785*
X33177*
G02X33199Y19776J30*
G01X33463Y19511*
G02X33472Y19490I21J21*
G01Y18565*
G03X33502Y18376I600*
G02X33504Y18367I28J9*
X33498Y18348I30*
G03X33435Y18165I237J183*
G01Y17265*
G03X33735Y16965I300*
G01X34635*
G03X34886Y17101J300*
G02X34912Y17115I26J16*
G01X35035*
G03X35459Y17291J600*
G01X35760Y17591*
G02X35781Y17600I21J21*
G01X36821*
G02X36851Y17570J30*
X36842Y17549I30*
G03X36700Y17200I358J349*
X37200Y16700I500*
X37700Y17200J500*
X37551Y17556I500*
G02X37542Y17578I21J22*
X37565Y17607I30*
G03X37800Y17900I65J293*
G01Y18500*
G03X37500Y18800I300*
G01X35520*
G03X35096Y18624J600*
G01X34868Y18397*
G02X34847Y18388I21J21*
X34828Y18395J30*
G03X34799Y18416I193J230*
G02X34785Y18442I16J26*
G01Y18452*
G03X34677Y18795I600*
G02X34672Y18812I25J17*
G01Y19751*
G03X34496Y20175I600*
G01X33863Y20809*
G03X33438Y20985I425J424*
G01X24639*
G03X24215Y20809J600*
G01X23791Y20385*
G03X23615Y19960I424J425*
G01Y18542*
G02X23601Y18516I30*
G03X23545Y18469I164J251*
G02X23523Y18460I22J21*
X23511Y18462J30*
G03X23265Y18515I246J547*
G01X22912*
G02X22886Y18529J30*
G03X22799Y18616I251J164*
G02X22785Y18642I16J26*
G01Y20026*
G03X22609Y20450I600*
G01X22185Y20874*
G03X21761Y21050I424J424*
G01X16939*
G03X16515Y20874J600*
G01X16091Y20450*
G03X15915Y20026I424J424*
G01Y18642*
G02X15901Y18616I30*
G03X15814Y18529I164J251*
G02X15788Y18515I26J16*
G01X15235*
G03X15057Y18488J600*
G02X15048Y18487I9J29*
X15029Y18494J30*
G03X14835Y18565I194J229*
G01X14782*
G02X14761Y18574J30*
G01X14430Y18905*
G02X14421Y18926I21J21*
G01Y19382*
G03X14245Y19806I600*
G01X13821Y20230*
G03X13397Y20406I424J424*
G01X2324*
G03X1900Y20230J600*
G01X1476Y19806*
G03X1300Y19382I424J424*
G01Y31300*
X39140*
G02X39170Y31270J30*
G01Y230*
G02X39140Y200I30*
G01X230*
G02X200Y230J30*
G01Y31270*
X9840Y16000D02*
X9590Y15750D01*
X9840Y15500*
X10090Y15750*
X9840Y16000*
X29530D02*
X29280Y15750D01*
X29530Y15500*
X29780Y15750*
X29530Y16000*
G37*
G54D10*
X1600Y2300D02*
X1070D01*
X1600D02*
X2130D01*
X1600D02*
Y1770D01*
X1900Y16600D02*
X2430D01*
X1900D02*
Y16070D01*
Y16600D02*
X1370D01*
X12415Y17815D02*
Y17135D01*
Y17815D02*
X11735D01*
X12415D02*
Y18495D01*
Y17815D02*
X13095D01*
X13415Y1515D02*
Y835D01*
Y1515D02*
Y2195D01*
Y1515D02*
X14095D01*
X13415D02*
X12735D01*
X15300Y8630D02*
X14620D01*
X15300D02*
Y7950D01*
Y8630D02*
Y9310D01*
Y8630D02*
X15980D01*
X18485Y17915D02*
Y17235D01*
Y17915D02*
Y18595D01*
Y17915D02*
X17805D01*
X18485D02*
X19165D01*
X19385Y1515D02*
Y835D01*
Y1515D02*
X18705D01*
X19385D02*
Y2195D01*
Y1515D02*
X20065D01*
X20215Y17915D02*
X20895D01*
X20215D02*
X19535D01*
X20215D02*
Y18595D01*
Y17915D02*
Y17235D01*
X21615Y1515D02*
Y2195D01*
Y1515D02*
X20935D01*
X21615D02*
X22295D01*
X21615D02*
Y835D01*
X26185Y17815D02*
X26865D01*
X26185D02*
Y18495D01*
Y17815D02*
Y17135D01*
Y17815D02*
X25505D01*
X27785Y1515D02*
Y2195D01*
Y1515D02*
Y835D01*
Y1515D02*
X28465D01*
X27785D02*
X27105D01*
X32215Y17715D02*
X32895D01*
X32215D02*
Y18395D01*
Y17715D02*
X31535D01*
X32215D02*
Y17035D01*
X33315Y1515D02*
X32635D01*
X33315D02*
X33995D01*
X33315D02*
Y835D01*
Y1515D02*
Y2195D01*
X36760Y8630D02*
Y9310D01*
Y8630D02*
X37440D01*
X36760D02*
Y7950D01*
Y8630D02*
X36080D01*
X37100Y1900D02*
Y1370D01*
Y1900D02*
X37630D01*
X37100D02*
X36570D01*
X37200Y17200D02*
X36670D01*
X37200D02*
X37730D01*
X37200D02*
Y16670D01*
G54D11*
X1600Y2300D03*
X1900Y16600D03*
Y17600D02*
Y19382D01*
X2324Y19806*
X13397*
X13821Y19382*
Y18665*
X14385Y18101*
Y17815*
X15300Y10600D02*
Y16900D01*
X14385Y17815*
X15385Y1515D02*
Y3088D01*
X15173Y3300*
X1600*
X15385Y1515D02*
X17415D01*
X16515Y17915D02*
X15235D01*
X15135Y17815*
X14385*
X16515Y17915D02*
Y20026D01*
X16939Y20450*
X21761*
X22185Y20026*
Y17915*
X23585Y1515D02*
Y3215D01*
X23373Y3427*
X17627*
X17415Y3215*
Y1515*
X23585D02*
X25815D01*
X24215Y17815D02*
Y19960D01*
X24639Y20385*
X33438*
X34072Y19751*
Y18565*
X34185Y18452*
Y17715*
X24215Y17815D02*
X23365D01*
X23265Y17915*
X22185*
X34471Y10388D02*
Y4589D01*
Y3369*
X26239*
X25815Y2945*
Y1515*
X34471Y3369D02*
X34816D01*
X35285Y2900*
X37100*
X35285D02*
Y1515D01*
X37100Y1900D03*
X37200Y17200D03*
Y18200D02*
X35520D01*
X35035Y17715*
X34185*
G54D12*
X34471Y10388D02*
X34683Y10600D01*
X36760*
G54D13*
X1600Y3300D03*
X1900Y17600D03*
X37100Y2900D03*
X37200Y18200D03*
G54D14*
X14385Y17815D03*
X15300Y10600D03*
X15385Y1515D03*
X16515Y17915D03*
X17415Y1515D03*
X22185Y17915D03*
X23585Y1515D03*
X24215Y17815D03*
X25815Y1515D03*
X34185Y17715D03*
X35285Y1515D03*
G54D15*
X12415Y17815D03*
X13415Y1515D03*
X15300Y8630D03*
X18485Y17915D03*
X19385Y1515D03*
X20215Y17915D03*
X21615Y1515D03*
X26185Y17815D03*
X27785Y1515D03*
X32215Y17715D03*
X33315Y1515D03*
X36760Y8630D03*
Y10600D03*
M02*
